<svg width="28" height="28" viewBox="0 0 28 28" fill="none" xmlns="http://www.w3.org/2000/svg">
<path d="M18.5003 12.5002C18.5003 9.18651 15.8143 6.50058 12.5007 6.50049C9.18694 6.50049 6.50098 9.18645 6.50098 12.5002C6.50106 15.8138 9.187 18.4998 12.5007 18.4998C15.8142 18.4998 18.5002 15.8137 18.5003 12.5002ZM21.5002 12.5002C21.5001 14.4436 20.8819 16.2415 19.8345 17.7126L24.0614 21.9395C24.6468 22.5252 24.6468 23.4751 24.0614 24.0609C23.4757 24.6466 22.5257 24.6464 21.9399 24.0609L17.7131 19.834C16.242 20.8814 14.4441 21.4996 12.5007 21.4997C7.53014 21.4997 3.50009 17.4707 3.5 12.5002C3.5 7.5296 7.53009 3.49951 12.5007 3.49951C17.4711 3.4996 21.5002 7.52965 21.5002 12.5002Z" fill="#111   "/>
</svg>
